<svg width="25" height="25" viewBox="0 0 25 25" fill="none" xmlns="http://www.w3.org/2000/svg">
<mask id="mask0_18_38" style="mask-type:alpha" maskUnits="userSpaceOnUse" x="0" y="0" width="25" height="25">
<rect x="0.563174" y="0.704193" width="24" height="24" fill="#D9D9D9"/>
</mask>
<g mask="url(#mask0_18_38)">
<path d="M16.7132 13.7042H5.56317C5.27984 13.7042 5.04234 13.6084 4.85067 13.4167C4.65901 13.225 4.56317 12.9875 4.56317 12.7042C4.56317 12.4209 4.65901 12.1834 4.85067 11.9917C5.04234 11.8 5.27984 11.7042 5.56317 11.7042H16.7132L13.8632 8.85419C13.6632 8.65419 13.5673 8.42086 13.5757 8.15419C13.584 7.88752 13.6798 7.65419 13.8632 7.45419C14.0632 7.25419 14.3007 7.15002 14.5757 7.14169C14.8507 7.13336 15.0882 7.22919 15.2882 7.42919L19.8632 12.0042C19.9632 12.1042 20.034 12.2125 20.0757 12.3292C20.1173 12.4459 20.1382 12.5709 20.1382 12.7042C20.1382 12.8375 20.1173 12.9625 20.0757 13.0792C20.034 13.1959 19.9632 13.3042 19.8632 13.4042L15.2882 17.9792C15.0882 18.1792 14.8507 18.275 14.5757 18.2667C14.3007 18.2584 14.0632 18.1542 13.8632 17.9542C13.6798 17.7542 13.584 17.5209 13.5757 17.2542C13.5673 16.9875 13.6632 16.7542 13.8632 16.5542L16.7132 13.7042Z" fill="#6E6E6E"/>
</g>
</svg>
